<svg width="36" height="36" viewBox="0 0 36 36" fill="none" xmlns="http://www.w3.org/2000/svg">
<g clip-path="url(#clip0_1511_3018)">
<path fill-rule="evenodd" clip-rule="evenodd" d="M-0.000359358 0H35.9502C35.9566 3.24331 35.9502 6.48504 35.9518 9.72835C35.9439 10.173 35.9678 10.6193 35.9407 11.0639C35.6713 11.0448 35.4068 10.9874 35.1406 10.9492C32.1475 10.479 29.1544 10.0152 26.1613 9.54507C25.9812 9.5116 25.7549 9.53869 25.6306 9.37453C24.9166 8.51549 24.0496 7.78236 23.0822 7.22614C21.6175 6.36869 19.9233 5.92562 18.2307 5.89056C17.912 5.8539 17.5948 5.90809 17.2761 5.9049C16.4648 5.96547 15.6552 6.09456 14.879 6.3416C14.3308 6.49779 13.8096 6.73366 13.2996 6.98229C13.0829 7.09067 12.8725 7.21339 12.6637 7.33929C12.4868 7.45723 12.2685 7.37117 12.0772 7.34408C8.21551 6.73685 4.35222 6.13759 0.488927 5.53196C0.326363 5.50328 0.162205 5.48256 -0.00195312 5.46024V0H-0.000359358Z" fill="#FEB918"/>
<path fill-rule="evenodd" clip-rule="evenodd" d="M35.9502 0H35.998V36H-0.000359358V35.9841C0.165392 35.9793 0.32955 35.941 0.495302 35.9649C0.627585 35.9872 0.759867 35.9665 0.89215 35.957C1.45475 35.9649 2.01735 35.9506 2.57995 35.9586C2.73454 35.9825 2.88914 35.9649 3.04373 35.9554C3.36408 35.9665 3.68284 35.949 4.00318 35.9538C4.16893 35.9474 4.33469 35.9825 4.49884 35.9602C4.63113 35.9458 4.76341 35.9617 4.89569 35.9665C5.35788 35.9378 5.82326 35.9665 6.28546 35.9538C6.72693 35.957 7.1684 35.9474 7.60828 35.9649C7.92863 35.9442 8.24898 35.9474 8.56932 35.9649C8.71276 35.9618 8.8562 35.9442 8.99964 35.9602C9.17655 35.9841 9.35186 35.9378 9.52877 35.9602C9.68337 35.9825 9.83637 35.9506 9.99096 35.9522C10.179 35.9522 10.3671 35.9474 10.5536 35.9586C10.7416 35.9793 10.9281 35.9362 11.1162 35.9602C11.2373 35.9793 11.3584 35.9602 11.4795 35.9538C12.2955 35.9697 13.1116 35.9331 13.9276 35.9633C14.3467 35.9442 14.7659 35.957 15.185 35.9522C15.6377 35.9602 16.0903 35.9347 16.5413 35.9681C16.6513 35.9633 16.7613 35.949 16.8728 35.9538C17.1151 35.9681 17.3589 35.9394 17.6012 35.9681C18.0411 35.9331 18.4841 35.9697 18.924 35.9538C19.0563 35.9538 19.1886 35.9809 19.3209 35.9602C19.4978 35.9347 19.6731 35.9872 19.85 35.9602C20.0269 35.9394 20.2022 35.9761 20.3791 35.957C20.556 35.941 20.7329 35.9777 20.9083 35.957C21.0852 35.9378 21.2621 35.9809 21.4374 35.9602C21.5808 35.9442 21.7243 35.9665 21.8677 35.9665C22.2199 35.9394 22.5737 35.9538 22.926 35.9633C23.1348 35.941 23.3451 35.9713 23.5555 35.957C23.7547 35.941 23.9524 35.9841 24.1516 35.9554C24.5373 35.9633 24.923 35.9474 25.3102 35.9554C25.4202 35.9586 25.5302 35.9761 25.6402 35.9617C25.8505 35.9347 26.0593 35.992 26.2697 35.9586C26.8434 35.9538 27.4172 35.957 27.991 35.9586C28.1344 35.9761 28.2778 35.9681 28.4213 35.957C28.9058 35.9697 29.3903 35.9538 29.8764 35.9617C30.2844 35.9362 30.6924 35.9745 31.102 35.9554C31.2566 35.9633 31.4112 35.9777 31.5658 35.957C31.9626 35.957 32.3595 35.9506 32.7563 35.957C32.9651 35.9872 33.1755 35.9426 33.3859 35.9538C33.7716 35.9617 34.1588 35.941 34.5429 35.9697C35.0099 35.9378 35.4801 35.9586 35.9486 35.9522C35.9582 34.3457 35.9502 32.7407 35.9518 31.1342C35.9502 29.7955 35.9566 28.4567 35.9486 27.1179C34.3644 27.3538 32.7818 27.6104 31.1976 27.8559C20.972 29.4528 10.7464 31.0498 0.522396 32.6483C0.348675 32.677 0.173361 32.7041 -0.00195312 32.7184V31.3079C5.29732 30.4776 10.5966 29.6488 15.8975 28.8249C15.9006 28.0375 15.8226 27.2518 15.7492 26.4693C15.6823 25.8142 15.5277 25.1656 15.2679 24.5583C15.0528 24.0707 14.7643 23.6117 14.3866 23.2323C13.9722 22.8052 13.4478 22.4944 12.8884 22.2968C12.1633 22.0402 11.3871 21.9621 10.6205 21.9764C10.3719 21.9653 10.1185 21.9988 9.87302 21.9557C9.82043 21.9047 9.79493 21.8314 9.76305 21.7677C9.55746 21.3071 9.32796 20.8576 9.14945 20.3859C9.07455 20.2121 8.99964 20.0352 8.97573 19.8456C8.96298 19.8376 8.93748 19.8217 8.92473 19.8137C8.48167 18.5371 8.1916 17.2015 8.14857 15.8484C8.08482 14.6483 8.25057 13.4355 8.65061 12.3023C9.0602 11.1309 9.70249 10.0375 10.536 9.11794C10.6922 8.94262 10.8612 8.77847 11.0173 8.60315C7.34531 8.02461 3.67327 7.45245 -0.000359358 6.88029V5.46024C0.163799 5.48415 0.327957 5.50487 0.490521 5.53196C4.35381 6.136 8.2171 6.73685 12.0788 7.34408C12.27 7.37117 12.4884 7.45723 12.6653 7.33929C12.8725 7.21179 13.0829 7.09067 13.3012 6.98229C13.8128 6.73366 14.3324 6.49779 14.8806 6.3416C15.6568 6.09456 16.4664 5.96547 17.2777 5.9049C17.5964 5.90809 17.9136 5.8539 18.2323 5.89056C19.9249 5.92562 21.6191 6.36869 23.0838 7.22614C24.0528 7.78236 24.9182 8.51549 25.6322 9.37453C25.7565 9.53869 25.9812 9.5116 26.1629 9.54507C29.156 10.0136 32.1491 10.4774 35.1422 10.9492C35.4084 10.9858 35.6729 11.0448 35.9423 11.0639C35.9694 10.6193 35.9454 10.173 35.9534 9.72835C35.9518 6.48504 35.9566 3.24331 35.9518 0L35.9502 0ZM13.8654 8.27484C12.6637 8.90437 11.623 9.83832 10.8707 10.9683C10.0547 12.1923 9.57818 13.6474 9.54311 15.1201C9.50008 16.9704 9.94474 18.8128 10.7193 20.4863C10.74 20.5277 10.7639 20.5819 10.8213 20.5676C12.0453 20.5755 13.298 20.8114 14.3595 21.4441C14.9763 21.8107 15.5118 22.308 15.9293 22.8913C16.6975 23.9575 17.0625 25.2628 17.1725 26.5601C17.233 27.2343 17.3016 27.91 17.2984 28.5874C17.751 28.5635 18.1941 28.4535 18.6435 28.3977C18.6611 27.7554 18.7184 27.1132 18.7806 26.4741C18.8906 25.2532 19.2412 24.0324 19.9313 23.0092C20.3377 22.41 20.8652 21.8936 21.4804 21.5095C22.5323 20.8465 23.7898 20.5931 25.0186 20.5707C25.0744 20.566 25.1349 20.5771 25.1875 20.5532C25.2816 20.397 25.3421 20.2217 25.4154 20.0544C26.037 18.5817 26.4052 16.9896 26.4004 15.3862C26.4211 13.8865 25.9764 12.3899 25.1748 11.1245C24.5006 10.0519 23.5651 9.14503 22.4765 8.49637C21.3226 7.80627 20.003 7.40942 18.6642 7.31539C17.0195 7.19586 15.3317 7.50027 13.8686 8.27484H13.8654ZM26.7542 11.0607C27.5224 12.5366 27.8906 14.2196 27.7917 15.8819C27.7471 17.0613 27.524 18.2311 27.1654 19.3531C26.8849 20.2488 26.4944 21.1063 26.0832 21.9478C25.978 22.0004 25.8537 21.9717 25.7422 21.978C25.1381 21.978 24.5277 21.9605 23.9316 22.0721C23.1858 22.1964 22.451 22.4737 21.8597 22.955C21.0724 23.5893 20.5927 24.5344 20.3568 25.5035C20.1959 26.1633 20.1512 26.8422 20.0986 27.5164C20.062 27.7331 20.0683 27.9547 20.0572 28.1746C20.2564 28.1459 20.4572 28.1172 20.6549 28.0742C21.0613 28.0248 21.4629 27.9467 21.8693 27.8909C25.1381 27.3777 28.4069 26.8693 31.6757 26.3577C33.1022 26.1314 34.5302 25.9194 35.9534 25.6851C35.9534 21.2895 35.9566 16.8923 35.9534 12.4967C32.887 12.0218 29.8222 11.5405 26.7574 11.0607H26.7542Z" fill="#FFFFFE"/>
<path fill-rule="evenodd" clip-rule="evenodd" d="M-0.000359358 6.88184C3.67168 7.454 7.34531 8.02616 11.0173 8.6047C10.8612 8.78001 10.6922 8.94258 10.536 9.11948C9.70249 10.0407 9.0602 11.1324 8.65061 12.3038C8.24898 13.437 8.08322 14.6499 8.14857 15.85C8.1916 17.2031 8.48167 18.5402 8.92473 19.8153C8.93748 19.8232 8.96298 19.8392 8.97573 19.8471C8.99964 20.0368 9.07455 20.2121 9.14945 20.3874C9.32955 20.8592 9.55746 21.3086 9.76305 21.7692C9.79493 21.8346 9.82043 21.9063 9.87302 21.9573C10.1185 22.0003 10.3719 21.9668 10.6205 21.978C11.3855 21.9636 12.1633 22.0401 12.8884 22.2983C13.4478 22.496 13.9722 22.8067 14.3866 23.2339C14.7627 23.6132 15.0528 24.0722 15.2679 24.5599C15.5277 25.1671 15.6823 25.8142 15.7492 26.4708C15.8241 27.2534 15.9022 28.0391 15.8975 28.8264C10.5966 29.6504 5.29732 30.4791 -0.00195312 31.3095V6.88184H-0.000359358ZM8.9343 19.8742C8.9072 19.922 8.91517 19.9443 8.96139 19.9412C8.98211 19.8981 8.97255 19.8758 8.9343 19.8742ZM26.7542 11.0607C29.819 11.5404 32.8854 12.0201 35.9502 12.4967C35.955 16.8923 35.9518 21.2895 35.9502 25.6851C34.5254 25.9194 33.0974 26.1313 31.6726 26.3577C28.4037 26.8693 25.1349 27.3777 21.8661 27.8909C21.4613 27.9466 21.0581 28.0247 20.6517 28.0741C20.4843 28.0821 20.317 28.114 20.148 28.1028C20.0986 28.0566 20.0986 27.9865 20.0938 27.9259C20.0891 27.7889 20.0938 27.6518 20.0954 27.5163C20.1464 26.8422 20.1927 26.1632 20.3536 25.5034C20.5895 24.5344 21.0692 23.5893 21.8566 22.955C22.4462 22.4737 23.1826 22.1963 23.9284 22.072C24.5261 21.9605 25.1349 21.9764 25.739 21.978C25.8521 21.9716 25.9748 21.9987 26.08 21.9477C26.4912 21.1062 26.8833 20.2503 27.1622 19.3531C27.5208 18.2295 27.7439 17.0596 27.7886 15.8818C27.8874 14.2195 27.5192 12.5365 26.751 11.0607H26.7542Z" fill="#18AB1C"/>
<path fill-rule="evenodd" clip-rule="evenodd" d="M13.8655 8.27455C15.3285 7.50158 17.0163 7.19558 18.6611 7.31511C19.9999 7.40914 21.3211 7.80599 22.4734 8.49609C23.5603 9.14635 24.4975 10.0516 25.1716 11.1242C25.9733 12.3881 26.4195 13.8846 26.3972 15.3859C26.402 16.9893 26.0339 18.5798 25.4123 20.0541C25.339 20.2214 25.2784 20.3951 25.1844 20.5529C25.1318 20.5768 25.0712 20.5657 25.0154 20.5705C23.7866 20.5912 22.5292 20.8462 21.4773 21.5092C20.8637 21.8933 20.3361 22.4097 19.9281 23.0089C19.238 24.0337 18.8858 25.2529 18.7774 26.4738C18.7169 27.1145 18.6595 27.7552 18.6404 28.3974C18.1909 28.4516 17.7479 28.5616 17.2952 28.5871C17.2984 27.9098 17.2299 27.234 17.1693 26.5598C17.061 25.2625 16.6944 23.9572 15.9262 22.891C15.5086 22.3077 14.9715 21.8104 14.3563 21.4438C13.2949 20.8111 12.0422 20.5768 10.8182 20.5673C10.7608 20.5816 10.7369 20.529 10.7162 20.486C9.9416 18.8125 9.49694 16.9686 9.53997 15.1198C9.57663 13.6471 10.0516 12.1936 10.8676 10.968C11.6198 9.83804 12.6606 8.90409 13.8623 8.27455H13.8655Z" fill="#0174FA"/>
<path fill-rule="evenodd" clip-rule="evenodd" d="M8.93404 19.874C8.97388 19.874 8.98345 19.8963 8.96113 19.941C8.91491 19.9442 8.90535 19.9234 8.93404 19.874ZM31.199 27.8572C32.7832 27.6118 34.3642 27.3552 35.95 27.1193C35.9579 28.4581 35.95 29.7968 35.9532 31.1356C35.9516 32.7421 35.9595 34.3486 35.95 35.9535C35.4814 35.9583 35.0112 35.9376 34.5443 35.9711C34.1586 35.9424 33.7729 35.9631 33.3872 35.9551C33.1768 35.944 32.968 35.9902 32.7577 35.9583C32.3608 35.9503 31.964 35.9583 31.5671 35.9583C31.4125 35.9774 31.2579 35.9631 31.1033 35.9567C30.6953 35.9758 30.2873 35.9376 29.8777 35.9631C29.3916 35.9551 28.9071 35.9695 28.4226 35.9583C28.2792 35.9695 28.1357 35.979 27.9923 35.9599C27.4185 35.9599 26.8448 35.9567 26.271 35.9599C26.0623 35.9934 25.8519 35.9376 25.6415 35.9631C25.5315 35.9758 25.4216 35.9583 25.3116 35.9567C24.9259 35.9488 24.5386 35.9663 24.1529 35.9567C23.9537 35.987 23.7561 35.9424 23.5568 35.9583C23.3465 35.9711 23.1377 35.9408 22.9273 35.9647C22.5751 35.9551 22.2213 35.9408 21.869 35.9679C21.7256 35.9679 21.5822 35.944 21.4387 35.9615C21.2618 35.9822 21.0865 35.9408 20.9096 35.9583C20.7327 35.9806 20.5574 35.9424 20.3805 35.9583C20.2036 35.9758 20.0267 35.9392 19.8513 35.9615C19.6744 35.9886 19.4991 35.936 19.3222 35.9615C19.1899 35.9822 19.0576 35.9551 18.9254 35.9551C18.4839 35.9727 18.0424 35.936 17.6025 35.9695C17.3603 35.9408 17.1164 35.9695 16.8742 35.9551C16.7626 35.9488 16.6542 35.9631 16.5427 35.9695C16.0916 35.9376 15.6374 35.9631 15.1864 35.9535C14.7672 35.9583 14.3481 35.9456 13.9289 35.9647C13.1129 35.9328 12.2969 35.9695 11.4809 35.9551C11.3598 35.9599 11.2386 35.979 11.1175 35.9615C10.931 35.9376 10.743 35.9806 10.5549 35.9599C10.3684 35.9488 10.1804 35.9535 9.9923 35.9535C9.8377 35.9535 9.68311 35.9838 9.53011 35.9615C9.3532 35.9392 9.17789 35.9854 9.00098 35.9615C8.85754 35.9456 8.7141 35.9615 8.57066 35.9663C8.25031 35.9472 7.92997 35.944 7.60962 35.9663C7.16974 35.9472 6.72827 35.9583 6.28679 35.9551C5.82301 35.9679 5.35922 35.9392 4.89703 35.9679C4.76475 35.9631 4.63246 35.9472 4.50018 35.9615C4.33443 35.9822 4.17027 35.9488 4.00452 35.9551C3.68417 35.9503 3.36542 35.9679 3.04507 35.9567C2.89048 35.9647 2.73588 35.9838 2.58128 35.9599C2.01869 35.9519 1.45609 35.9663 0.893486 35.9583C0.761203 35.9679 0.628921 35.9886 0.496638 35.9663C0.330886 35.9424 0.165135 35.979 0.000976562 35.9854V32.7214C0.176291 32.707 0.351605 32.6799 0.525326 32.6512C10.7509 31.0527 20.9749 29.4542 31.2006 27.8588L31.199 27.8572ZM20.0984 27.5177C20.0617 27.7345 20.0681 27.956 20.0569 28.176C20.2562 28.1473 20.457 28.1186 20.6546 28.0755C20.4873 28.0835 20.3199 28.1154 20.151 28.1042C20.1016 28.058 20.1016 27.9879 20.0968 27.9273C20.092 27.7903 20.0968 27.6532 20.0984 27.5177Z" fill="#81D814"/>
</g>
<defs>
<clipPath id="clip0_1511_3018">
<rect width="36" height="36" fill="white"/>
</clipPath>
</defs>
</svg>
