<svg width="21" height="18" viewBox="0 0 21 18" fill="none" xmlns="http://www.w3.org/2000/svg">
<path d="M9.75 15.1848V5.35375C9.0475 4.89608 8.28725 4.55283 7.46925 4.324C6.65125 4.09517 5.82817 3.98075 5 3.98075C4.4 3.98075 3.83942 4.02783 3.31825 4.122C2.79708 4.21633 2.2615 4.3705 1.7115 4.5845C1.63467 4.61017 1.58017 4.64708 1.548 4.69525C1.516 4.74325 1.5 4.79608 1.5 4.85375V14.3115C1.5 14.4013 1.53208 14.4671 1.59625 14.5087C1.66025 14.5504 1.73075 14.5552 1.80775 14.523C2.28208 14.3615 2.78267 14.2372 3.3095 14.15C3.8365 14.0628 4.4 14.0193 5 14.0193C5.82817 14.0193 6.63392 14.1132 7.41725 14.301C8.20058 14.4888 8.97817 14.7834 9.75 15.1848ZM10.5 17.3845C9.69367 16.7897 8.82383 16.3301 7.8905 16.0057C6.95717 15.6814 5.99367 15.5193 5 15.5193C4.38983 15.5193 3.7905 15.5868 3.202 15.722C2.6135 15.8573 2.04617 16.0564 1.5 16.3193C1.14367 16.4833 0.804583 16.4573 0.48275 16.2413C0.160917 16.0253 0 15.7192 0 15.323V4.4655C0 4.25 0.0555001 4.04775 0.1665 3.85875C0.277333 3.66958 0.43725 3.53333 0.64625 3.45C1.32308 3.1205 2.0285 2.87658 2.7625 2.71825C3.4965 2.55992 4.24233 2.48075 5 2.48075C6.16283 2.48075 7.17275 2.62083 8.02975 2.901C8.88675 3.18117 9.78642 3.60325 10.7288 4.16725C10.8993 4.26092 11.0288 4.37758 11.1173 4.51725C11.2058 4.65708 11.25 4.82892 11.25 5.03275V15.1848C12.0218 14.7834 12.7994 14.4888 13.5828 14.301C14.3661 14.1132 15.1718 14.0193 16 14.0193C16.6 14.0193 17.1635 14.0628 17.6905 14.15C18.2173 14.2372 18.7179 14.3615 19.1923 14.523C19.2693 14.5552 19.3398 14.5504 19.4038 14.5087C19.4679 14.4671 19.5 14.4013 19.5 14.3115V3.08475C19.6538 3.13592 19.8051 3.19233 19.9538 3.254C20.1026 3.3155 20.2488 3.38725 20.3923 3.46925C20.5947 3.55892 20.7467 3.69517 20.848 3.878C20.9493 4.06067 21 4.2565 21 4.4655V15.323C21 15.7192 20.8327 16.0221 20.498 16.2318C20.1633 16.4413 19.8114 16.464 19.4423 16.3C18.9026 16.0435 18.3433 15.8492 17.7645 15.7172C17.1857 15.5852 16.5975 15.5193 16 15.5193C15.0063 15.5193 14.0428 15.6814 13.1095 16.0057C12.1762 16.3301 11.3063 16.7897 10.5 17.3845ZM13.8462 12V1.5L16.9038 0.5V11L13.8462 12Z" fill="#1C1B1F"/>
</svg>
