<svg width="21" height="18" viewBox="0 0 21 18" fill="none" xmlns="http://www.w3.org/2000/svg">
<path d="M5.69225 13.8365V6.048C5.69225 6.00317 5.67625 5.96475 5.64425 5.93275C5.61225 5.90058 5.57375 5.8845 5.52875 5.8845H1.6635C1.61867 5.8845 1.58017 5.90058 1.548 5.93275C1.516 5.96475 1.5 6.00317 1.5 6.048V13.8365C1.5 13.8813 1.516 13.9198 1.548 13.952C1.58017 13.984 1.61867 14 1.6635 14H5.52875C5.57375 14 5.61225 13.984 5.64425 13.952C5.67625 13.9198 5.69225 13.8813 5.69225 13.8365ZM1.35575 15.5C0.97925 15.5 0.659167 15.3682 0.3955 15.1045C0.131833 14.8408 0 14.5208 0 14.1443V5.7405C0 5.36383 0.131833 5.04367 0.3955 4.78C0.659167 4.5165 0.97925 4.38475 1.35575 4.38475H5.8365C6.21317 4.38475 6.53325 4.5165 6.79675 4.78C7.06042 5.04367 7.19225 5.36383 7.19225 5.7405V14.1443C7.19225 14.5208 7.06042 14.8408 6.79675 15.1045C6.53325 15.3682 6.21317 15.5 5.8365 15.5H1.35575ZM3.59425 8.5C3.79942 8.5 3.96958 8.429 4.10475 8.287C4.24008 8.14517 4.30775 7.97958 4.30775 7.79025C4.30775 7.58525 4.24017 7.41508 4.105 7.27975C3.96983 7.14458 3.79883 7.077 3.592 7.077C3.40117 7.077 3.23558 7.14458 3.09525 7.27975C2.95492 7.41492 2.88475 7.58583 2.88475 7.7925C2.88475 7.98333 2.95567 8.149 3.0975 8.2895C3.2395 8.42983 3.40508 8.5 3.59425 8.5ZM14.0577 17.8845V12.9135C13.9078 12.8058 13.7869 12.6709 13.6953 12.5087C13.6036 12.3466 13.5577 12.177 13.5577 12C13.5577 11.693 13.6672 11.4336 13.886 11.2218C14.1048 11.0098 14.3602 10.9038 14.652 10.9038C14.9583 10.9038 15.2179 11.0098 15.4307 11.2218C15.6436 11.4336 15.75 11.693 15.75 12C15.75 12.177 15.7109 12.3475 15.6328 12.5115C15.5544 12.6757 15.4268 12.8097 15.25 12.9135V17.8845H14.0577ZM12.0212 14.7865C11.6481 14.4097 11.3525 13.9827 11.1345 13.5055C10.9167 13.0283 10.8077 12.5265 10.8077 12C10.8077 10.9263 11.1842 10.0169 11.937 9.27175C12.6897 8.52642 13.5946 8.15375 14.6518 8.15375C15.7249 8.15375 16.6346 8.52642 17.3808 9.27175C18.1269 10.0169 18.5 10.9263 18.5 12C18.5 12.523 18.3978 13.0246 18.1933 13.5048C17.9888 13.9849 17.6917 14.4102 17.302 14.7807L16.448 13.9423C16.7198 13.6898 16.9311 13.396 17.0818 13.061C17.2324 12.726 17.3078 12.3723 17.3078 12C17.3078 11.257 17.0512 10.6289 16.538 10.1158C16.025 9.60275 15.3969 9.34625 14.6538 9.34625C13.9153 9.34625 13.2883 9.60275 12.773 10.1158C12.2577 10.6289 12 11.257 12 12C12 12.37 12.0795 12.7215 12.2385 13.0545C12.3975 13.3873 12.6097 13.6801 12.875 13.9327L12.0212 14.7865ZM10.2558 16.5615C9.64675 15.9475 9.16983 15.2457 8.825 14.456C8.48017 13.6665 8.30775 12.8478 8.30775 12C8.30775 10.2263 8.92592 8.72525 10.1622 7.49675C11.3984 6.26808 12.8949 5.65375 14.6518 5.65375C16.4249 5.65375 17.9263 6.26808 19.1558 7.49675C20.3853 8.72525 21 10.2263 21 12C21 12.85 20.8368 13.6708 20.5105 14.4625C20.1842 15.2542 19.7031 15.9455 19.0673 16.5365L18.2327 15.6923C18.7544 15.2026 19.1473 14.638 19.4115 13.9985C19.6757 13.359 19.8078 12.6928 19.8078 12C19.8078 10.557 19.3092 9.33725 18.3123 8.34075C17.3154 7.34442 16.0951 6.84625 14.6512 6.84625C13.2247 6.84625 12.0096 7.34442 11.0058 8.34075C10.0019 9.33725 9.5 10.557 9.5 12C9.5 12.6948 9.63875 13.3641 9.91625 14.0078C10.1939 14.6513 10.5885 15.2211 11.1 15.7172L10.2558 16.5615ZM1 2C1.05133 1.57817 1.24075 1.22275 1.56825 0.933749C1.89592 0.644583 2.28342 0.5 2.73075 0.5H17.577C18.082 0.5 18.5095 0.675 18.8595 1.025C19.2095 1.375 19.3845 1.80258 19.3845 2.30775V4.90575C19.1448 4.76092 18.9016 4.62533 18.6548 4.499C18.4081 4.37283 18.1514 4.25775 17.8848 4.15375V2.30775C17.8848 2.23075 17.8527 2.16025 17.7885 2.09625C17.7243 2.03208 17.6538 2 17.577 2H1Z" fill="#1C1B1F"/>
</svg>
