<svg width="13" height="18" viewBox="0 0 13 18" fill="none" xmlns="http://www.w3.org/2000/svg">
<path d="M0.192383 17.4038V10.9231C0.192383 10.4181 0.367383 9.99057 0.717383 9.64057C1.06738 9.29057 1.49497 9.11557 2.00013 9.11557H2.94238V7.07708H2.00013C1.49497 7.07708 1.06738 6.90208 0.717383 6.55208C0.367383 6.20208 0.192383 5.77449 0.192383 5.26933V2.59632C0.192383 2.09116 0.367383 1.66357 0.717383 1.31357C1.06738 0.963574 1.49497 0.788574 2.00013 0.788574H11.0001C11.5053 0.788574 11.9329 0.963574 12.2829 1.31357C12.6329 1.66357 12.8079 2.09116 12.8079 2.59632V5.26933C12.8079 5.77449 12.6329 6.20208 12.2829 6.55208C11.9329 6.90208 11.5053 7.07708 11.0001 7.07708H10.0579V9.11557H11.0001C11.5053 9.11557 11.9329 9.29057 12.2829 9.64057C12.6329 9.99057 12.8079 10.4181 12.8079 10.9231V17.4038H11.3079V14.4038H1.69238V17.4038H0.192383ZM2.00013 5.57708H11.0001C11.077 5.57708 11.1475 5.54499 11.2116 5.48082C11.2758 5.41682 11.3079 5.34633 11.3079 5.26933V2.59632C11.3079 2.51932 11.2758 2.44883 11.2116 2.38483C11.1475 2.32066 11.077 2.28857 11.0001 2.28857H2.00013C1.9233 2.28857 1.8528 2.32066 1.78863 2.38483C1.72447 2.44883 1.69238 2.51932 1.69238 2.59632V5.26933C1.69238 5.34633 1.72447 5.41682 1.78863 5.48082C1.8528 5.54499 1.9233 5.57708 2.00013 5.57708ZM4.44238 9.11557H8.55788V7.07708H4.44238V9.11557ZM1.69238 12.9038H11.3079V10.9231C11.3079 10.8462 11.2758 10.7757 11.2116 10.7116C11.1475 10.6474 11.077 10.6153 11.0001 10.6153H2.00013C1.9233 10.6153 1.8528 10.6474 1.78863 10.7116C1.72447 10.7757 1.69238 10.8462 1.69238 10.9231V12.9038Z" fill="#1C1B1F"/>
</svg>
