<svg width="23" height="11" viewBox="0 0 23 11" fill="none" xmlns="http://www.w3.org/2000/svg">
<path d="M3.76925 6.73637L5.9 4.60562L3.76925 2.47487L1.6385 4.60562L3.76925 6.73637ZM17.1155 6.32687L19.25 2.90387L21.3943 6.32687H17.1155ZM11.5035 5.49987C10.7832 5.49987 10.1698 5.24745 9.6635 4.74262C9.15717 4.23795 8.904 3.62503 8.904 2.90387C8.904 2.1682 9.15633 1.55162 9.661 1.05412C10.1658 0.55645 10.7788 0.307617 11.5 0.307617C12.2355 0.307617 12.8521 0.556117 13.3497 1.05312C13.8472 1.54995 14.096 2.1657 14.096 2.90037C14.096 3.62053 13.8476 4.23387 13.3508 4.74037C12.8538 5.2467 12.238 5.49987 11.5035 5.49987ZM11.5 1.80762C11.1975 1.80762 10.9392 1.9127 10.725 2.12287C10.5108 2.33287 10.4038 2.5932 10.4038 2.90387C10.4038 3.20637 10.5108 3.4647 10.725 3.67887C10.9392 3.89287 11.1991 3.99987 11.5048 3.99987C11.8106 3.99987 12.0689 3.89287 12.2797 3.67887C12.4908 3.4647 12.5962 3.2047 12.5962 2.89887C12.5962 2.5932 12.4912 2.33487 12.281 2.12387C12.0708 1.91303 11.8105 1.80762 11.5 1.80762ZM0 10.7884V9.56912C0 8.89345 0.348583 8.34445 1.04575 7.92212C1.74292 7.49962 2.64767 7.28837 3.76 7.28837C3.96367 7.28837 4.15908 7.29412 4.34625 7.30562C4.53342 7.31712 4.71225 7.33953 4.88275 7.37287C4.69425 7.66787 4.55125 7.9817 4.45375 8.31437C4.35642 8.6472 4.30775 9.0017 4.30775 9.37787V10.7884H0ZM6 10.7884V9.41337C6 8.4582 6.50825 7.6922 7.52475 7.11537C8.54125 6.53837 9.86725 6.24987 11.5027 6.24987C13.1534 6.24987 14.4823 6.53837 15.4895 7.11537C16.4965 7.6922 17 8.4582 17 9.41337V10.7884H6ZM19.25 7.28837C20.375 7.28837 21.2812 7.49962 21.9688 7.92212C22.6562 8.34445 23 8.89345 23 9.56912V10.7884H18.6923V9.37787C18.6923 9.0017 18.6478 8.6472 18.5588 8.31437C18.4696 7.9817 18.3359 7.66787 18.1578 7.37287C18.3283 7.33953 18.5051 7.31712 18.6883 7.30562C18.8716 7.29412 19.0588 7.28837 19.25 7.28837ZM11.4988 7.74987C10.4598 7.74987 9.56692 7.8877 8.82025 8.16337C8.07342 8.43903 7.659 8.77878 7.577 9.18262V9.28837H15.4385V9.18262C15.3462 8.77878 14.9307 8.43903 14.1923 8.16337C13.4539 7.8877 12.5561 7.74987 11.4988 7.74987Z" fill="#1C1B1F"/>
</svg>
