<svg width="17" height="18" viewBox="0 0 17 18" fill="none" xmlns="http://www.w3.org/2000/svg">
<path d="M1.92293 17.1921L0.0864258 6.19212H16.9134L15.0769 17.1921H1.92293ZM3.17493 15.6921H13.8249L15.0999 7.69212H1.89993L3.17493 15.6921ZM6.49993 11.4421H10.4999C10.7124 11.4421 10.8905 11.3702 11.0342 11.2264C11.178 11.0825 11.2499 10.9044 11.2499 10.6919C11.2499 10.4792 11.178 10.3011 11.0342 10.1576C10.8905 10.014 10.7124 9.94212 10.4999 9.94212H6.49993C6.28743 9.94212 6.10934 10.014 5.96568 10.1579C5.82184 10.3017 5.74993 10.4799 5.74993 10.6924C5.74993 10.905 5.82184 11.0832 5.96568 11.2269C6.10934 11.3704 6.28743 11.4421 6.49993 11.4421ZM2.49993 4.99987C2.28743 4.99987 2.10934 4.92795 1.96568 4.78412C1.82184 4.64028 1.74993 4.46212 1.74993 4.24962C1.74993 4.03695 1.82184 3.85887 1.96568 3.71537C2.10934 3.5717 2.28743 3.49987 2.49993 3.49987H14.4999C14.7124 3.49987 14.8905 3.57178 15.0342 3.71562C15.178 3.85945 15.2499 4.03762 15.2499 4.25012C15.2499 4.46278 15.178 4.64087 15.0342 4.78437C14.8905 4.92803 14.7124 4.99987 14.4999 4.99987H2.49993ZM4.49993 2.30762C4.28743 2.30762 4.10934 2.2357 3.96568 2.09187C3.82184 1.94803 3.74993 1.76987 3.74993 1.55737C3.74993 1.3447 3.82184 1.16662 3.96568 1.02312C4.10934 0.87945 4.28743 0.807617 4.49993 0.807617H12.4999C12.7124 0.807617 12.8905 0.879534 13.0342 1.02337C13.178 1.1672 13.2499 1.34537 13.2499 1.55787C13.2499 1.77053 13.178 1.94862 13.0342 2.09212C12.8905 2.23578 12.7124 2.30762 12.4999 2.30762H4.49993Z" fill="#1C1B1F"/>
</svg>
