<svg width="19" height="22" viewBox="0 0 19 22" fill="none" xmlns="http://www.w3.org/2000/svg">
<path d="M4.5 7.49052L6.31725 5.68277L4.5 3.87502L2.69225 5.68277L4.5 7.49052ZM1.80775 12.8845C1.30258 12.8845 0.875 12.7095 0.525 12.3595C0.175 12.0095 0 11.582 0 11.077V2.69227C0 2.18727 0.175 1.75977 0.525 1.40977C0.875 1.05977 1.30258 0.884766 1.80775 0.884766H17.1923C17.6974 0.884766 18.125 1.05977 18.475 1.40977C18.825 1.75977 19 2.18727 19 2.69227V11.077C19 11.582 18.825 12.0095 18.475 12.3595C18.125 12.7095 17.6974 12.8845 17.1923 12.8845H14.0443C14.1096 12.6345 14.1532 12.3846 14.175 12.1348C14.1968 11.8848 14.1975 11.6348 14.177 11.3848H17.1923C17.2693 11.3848 17.3398 11.3527 17.4038 11.2885C17.4679 11.2243 17.5 11.1538 17.5 11.077V2.69227C17.5 2.61543 17.4679 2.54493 17.4038 2.48076C17.3398 2.41676 17.2693 2.38477 17.1923 2.38477H1.80775C1.73075 2.38477 1.66025 2.41676 1.59625 2.48076C1.53208 2.54493 1.5 2.61543 1.5 2.69227V11.077C1.5 11.1538 1.53208 11.2243 1.59625 11.2885C1.66025 11.3527 1.73075 11.3848 1.80775 11.3848H4.823C4.8025 11.6348 4.80317 11.8848 4.825 12.1348C4.84683 12.3846 4.89042 12.6345 4.95575 12.8845H1.80775ZM13.9988 6.13477C14.3458 6.13477 14.641 6.01335 14.8845 5.77052C15.1282 5.52768 15.25 5.23277 15.25 4.88577C15.25 4.53893 15.1286 4.24368 14.8857 4.00002C14.6429 3.75652 14.3481 3.63477 14.0013 3.63477C13.6543 3.63477 13.359 3.75618 13.1155 3.99902C12.8718 4.24185 12.75 4.53668 12.75 4.88352C12.75 5.23035 12.8714 5.5256 13.1143 5.76927C13.3571 6.01293 13.6519 6.13477 13.9988 6.13477ZM3 21.1153V19.3615C3 18.8743 3.13525 18.4208 3.40575 18.001C3.67625 17.5812 4.0365 17.2687 4.4865 17.0635C5.2775 16.6993 6.09383 16.4247 6.9355 16.2395C7.77717 16.0542 8.632 15.9615 9.5 15.9615C10.368 15.9615 11.2228 16.0542 12.0645 16.2395C12.9062 16.4247 13.7225 16.6993 14.5135 17.0635C14.9635 17.2687 15.3238 17.5804 15.5943 17.9988C15.8648 18.4171 16 18.8703 16 19.3583V21.1153H3ZM4.5 19.6153H14.5V19.3615C14.5 19.1615 14.4417 18.9782 14.325 18.8115C14.2083 18.6448 14.0583 18.5198 13.875 18.4365C13.175 18.1198 12.4583 17.8782 11.725 17.7115C10.9917 17.5448 10.25 17.4615 9.5 17.4615C8.75 17.4615 8.00833 17.5448 7.275 17.7115C6.54167 17.8782 5.825 18.1198 5.125 18.4365C4.94167 18.5198 4.79167 18.6448 4.675 18.8115C4.55833 18.9782 4.5 19.1615 4.5 19.3615V19.6153ZM9.5 14.7693C8.668 14.7693 7.96 14.4773 7.376 13.8933C6.792 13.3093 6.5 12.6013 6.5 11.7693C6.5 10.9373 6.792 10.2293 7.376 9.64527C7.96 9.06127 8.668 8.76927 9.5 8.76927C10.332 8.76927 11.04 9.06127 11.624 9.64527C12.208 10.2293 12.5 10.9373 12.5 11.7693C12.5 12.6013 12.208 13.3093 11.624 13.8933C11.04 14.4773 10.332 14.7693 9.5 14.7693ZM9.5 13.2693C9.91667 13.2693 10.2708 13.1234 10.5625 12.8318C10.8542 12.5401 11 12.1859 11 11.7693C11 11.3526 10.8542 10.9984 10.5625 10.7068C10.2708 10.4151 9.91667 10.2693 9.5 10.2693C9.08333 10.2693 8.72917 10.4151 8.4375 10.7068C8.14583 10.9984 8 11.3526 8 11.7693C8 12.1859 8.14583 12.5401 8.4375 12.8318C8.72917 13.1234 9.08333 13.2693 9.5 13.2693Z" fill="#1C1B1F"/>
</svg>
