<svg width="125" height="30" viewBox="0 0 125 30" fill="none" xmlns="http://www.w3.org/2000/svg">
<path d="M13.2652 11.1145C13.2652 12.1315 12.4311 12.956 11.4022 12.956C10.3732 12.956 9.53913 12.1315 9.53913 11.1145C9.53913 10.0975 10.3732 9.27306 11.4022 9.27306C12.4311 9.27306 13.2652 10.0975 13.2652 11.1145Z" fill="#3B3B3B"/>
<path d="M13.2652 6.32673C13.2652 7.34373 12.4311 8.16818 11.4022 8.16818C10.3732 8.16818 9.53913 7.34373 9.53913 6.32673C9.53913 5.30972 10.3732 4.48528 11.4022 4.48528C12.4311 4.48528 13.2652 5.30972 13.2652 6.32673Z" fill="#3B3B3B"/>
<path d="M18.1086 6.32673C18.1086 7.34373 17.2745 8.16818 16.2456 8.16818C15.2166 8.16818 14.3825 7.34373 14.3825 6.32673C14.3825 5.30972 15.2166 4.48528 16.2456 4.48528C17.2745 4.48528 18.1086 5.30972 18.1086 6.32673Z" fill="#3B3B3B"/>
<path d="M18.1086 11.1145C18.1086 12.1315 17.2745 12.956 16.2456 12.956C15.2166 12.956 14.3825 12.1315 14.3825 11.1145C14.3825 10.0975 15.2166 9.27306 16.2456 9.27306C17.2745 9.27306 18.1086 10.0975 18.1086 11.1145Z" fill="#3B3B3B"/>
<path d="M18.1086 15.9023C18.1086 16.9193 17.2745 17.7437 16.2456 17.7437C15.2166 17.7437 14.3825 16.9193 14.3825 15.9023C14.3825 14.8853 15.2166 14.0608 16.2456 14.0608C17.2745 14.0608 18.1086 14.8853 18.1086 15.9023Z" fill="#3B3B3B"/>
<path d="M3.72608 6.32673C3.72608 7.34373 2.89197 8.16818 1.86304 8.16818C0.834112 8.16818 0 7.34373 0 6.32673C0 5.30972 0.834112 4.48528 1.86304 4.48528C2.89197 4.48528 3.72608 5.30972 3.72608 6.32673Z" fill="#3B3B3B"/>
<path d="M9.53913 15.9023C9.53913 14.8853 10.3732 14.0608 11.4022 14.0608C12.4311 14.0608 13.2652 14.8853 13.2652 15.9023H9.53913Z" fill="#3B3B3B"/>
<path d="M9.53913 15.9023H13.2652V25.5146H9.53913V15.9023Z" fill="#3B3B3B"/>
<path d="M4.84411 20.2821C4.84411 19.226 5.7103 18.3698 6.77881 18.3698C7.76816 18.3698 8.57019 19.1625 8.57019 20.1404V25.5146H4.84411V20.2821Z" fill="#3B3B3B"/>
<path d="M8.49518 11.1145C8.49518 12.1315 7.66106 12.956 6.63213 12.956C5.60321 12.956 4.76909 12.1315 4.76909 11.1145C4.76909 10.0975 5.60321 9.27306 6.63213 9.27306C7.66106 9.27306 8.49518 10.0975 8.49518 11.1145Z" fill="#3B3B3B"/>
<path d="M3.72608 15.9023C3.72608 16.9193 2.89197 17.7437 1.86304 17.7437C0.834112 17.7437 0 16.9193 0 15.9023C0 14.8853 0.834112 14.0608 1.86304 14.0608C2.89197 14.0608 3.72608 14.8853 3.72608 15.9023Z" fill="#3B3B3B"/>
<path d="M8.57019 15.9023C8.57019 16.9193 7.73608 17.7437 6.70715 17.7437C5.67822 17.7437 4.84411 16.9193 4.84411 15.9023C4.84411 14.8853 5.67822 14.0608 6.70715 14.0608C7.73608 14.0608 8.57019 14.8853 8.57019 15.9023Z" fill="#3B3B3B"/>
<path d="M37.1671 24.6029V22.5H25.4222V7.35886H27.2938V20.7966H35.5373V7.56915H37.4089V20.7966H39.0387V24.6029H37.1671ZM39.4601 22.5V7.35886H51.2786V22.5H49.407V9.13584H41.3317V22.5H39.4601ZM52.964 22.5V7.35886H54.7831V14.5088L61.4704 7.35886H63.8152L57.5695 14.0777L64.3514 22.5H61.9751L56.3182 15.4341L54.7831 17.0849V22.5H52.964ZM70.0435 22.8154C68.5364 22.8154 67.2536 22.4825 66.1951 21.8165C65.1437 21.1506 64.3445 20.2253 63.7978 19.0407C63.251 17.856 62.9776 16.4856 62.9776 14.9294C62.9776 13.3733 63.251 12.0028 63.7978 10.8182C64.3445 9.63354 65.1437 8.70824 66.1951 8.04231C67.2536 7.37638 68.5364 7.04342 70.0435 7.04342C71.7959 7.04342 73.2365 7.48854 74.365 8.37878C75.5006 9.26903 76.2822 10.4677 76.7098 11.9748L74.8067 12.4795C74.4982 11.3509 73.9444 10.4607 73.1453 9.80878C72.3532 9.15687 71.3193 8.83092 70.0435 8.83092C68.9149 8.83092 67.9756 9.08677 67.2256 9.59849C66.4755 10.1102 65.9112 10.8252 65.5327 11.7435C65.1542 12.6548 64.9614 13.7167 64.9544 14.9294C64.9474 16.1351 65.1331 17.1971 65.5117 18.1154C65.8902 19.0337 66.458 19.7487 67.2151 20.2604C67.9721 20.7721 68.9149 21.0279 70.0435 21.0279C71.3193 21.0279 72.3532 20.702 73.1453 20.0501C73.9444 19.3912 74.4982 18.5009 74.8067 17.3794L76.7098 17.8841C76.2822 19.3841 75.5006 20.5828 74.365 21.4801C73.2365 22.3703 71.7959 22.8154 70.0435 22.8154ZM92.3841 22.5H90.4914V10.6605L82.5949 22.5H80.7023V7.35886H82.5949V19.1879L90.4914 7.35886H92.3841V22.5ZM94.0625 22.5V7.35886H95.7659L101.486 19.4192L107.174 7.35886H108.899V22.4895H107.122V11.4701L101.98 22.5H100.981L95.8395 11.4701V22.5H94.0625ZM122.33 24.6029V22.5H110.585V7.35886H112.457V20.7966H120.7V7.56915H122.572V20.7966H124.202V24.6029H122.33Z" fill="#3B3B3B"/>
</svg>
