<svg width="48" height="48" viewBox="0 0 48 48" fill="none" xmlns="http://www.w3.org/2000/svg">
<g clip-path="url(#clip0_1593_1208)">
<path d="M24.01 48.02C37.2703 48.02 48.02 37.2703 48.02 24.01C48.02 10.7496 37.2703 0 24.01 0C10.7496 0 0 10.7496 0 24.01C0 37.2703 10.7496 48.02 24.01 48.02Z" fill="url(#paint0_linear_1593_1208)"/>
<path fill-rule="evenodd" clip-rule="evenodd" d="M10.8554 23.7502C17.8525 20.7115 22.5105 18.6923 24.8496 17.7127C31.5068 14.9339 32.9062 14.4541 33.8058 14.4341C34.0058 14.4341 34.4456 14.4741 34.7454 14.714C34.9853 14.9139 35.0453 15.1738 35.0853 15.3737C35.1253 15.5736 35.1653 15.9934 35.1253 16.3133C34.7654 20.1117 33.2061 29.3279 32.4064 33.5661C32.0666 35.3654 31.4068 35.9651 30.7671 36.0251C29.3677 36.145 28.3081 35.1055 26.9687 34.2258C24.8496 32.8464 23.6701 31.9868 21.6109 30.6273C19.2319 29.068 20.7713 28.2083 22.1307 26.8089C22.4905 26.4491 28.628 20.8514 28.7479 20.3516C28.7679 20.2916 28.7679 20.0517 28.628 19.9318C28.488 19.8118 28.2881 19.8518 28.1282 19.8918C27.9083 19.9318 24.5497 22.1709 18.0124 26.589C17.0528 27.2487 16.1932 27.5686 15.4135 27.5486C14.5539 27.5286 12.9145 27.0688 11.6751 26.669C10.1757 26.1892 8.97618 25.9293 9.07614 25.0896C9.13611 24.6498 9.73586 24.21 10.8554 23.7502Z" fill="white"/>
</g>
<defs>
<linearGradient id="paint0_linear_1593_1208" x1="23.99" y1="0" x2="23.99" y2="47.6401" gradientUnits="userSpaceOnUse">
<stop stop-color="#2AABEE"/>
<stop offset="1" stop-color="#229ED9"/>
</linearGradient>
<clipPath id="clip0_1593_1208">
<rect width="48" height="48" fill="white"/>
</clipPath>
</defs>
</svg>
