<svg width="21" height="16" viewBox="0 0 21 16" fill="none" xmlns="http://www.w3.org/2000/svg">
<path d="M13.5015 15.5C11.4082 15.5 9.63458 14.7736 8.18075 13.3207C6.72692 11.8679 6 10.0948 6 8.0015C6 5.90817 6.72642 4.13458 8.17925 2.68075C9.63208 1.22692 11.4052 0.5 13.4985 0.5C15.5918 0.5 17.3654 1.22642 18.8193 2.67925C20.2731 4.13208 21 5.90517 21 7.9985C21 10.0918 20.2736 11.8654 18.8208 13.3193C17.3679 14.7731 15.5948 15.5 13.5015 15.5ZM5.5 15.2308C3.8615 14.7961 2.53525 13.9086 1.52125 12.5683C0.507083 11.2279 0 9.70517 0 8C0 6.29483 0.507083 4.77208 1.52125 3.43175C2.53525 2.09142 3.8615 1.20392 5.5 0.76925V2.35C4.3 2.76667 3.33333 3.49167 2.6 4.525C1.86667 5.55833 1.5 6.71667 1.5 8C1.5 9.28333 1.86667 10.4417 2.6 11.475C3.33333 12.5083 4.3 13.2333 5.5 13.65V15.2308ZM13.5 14C15.1667 14 16.5833 13.4167 17.75 12.25C18.9167 11.0833 19.5 9.66667 19.5 8C19.5 6.33333 18.9167 4.91667 17.75 3.75C16.5833 2.58333 15.1667 2 13.5 2C11.8333 2 10.4167 2.58333 9.25 3.75C8.08333 4.91667 7.5 6.33333 7.5 8C7.5 9.66667 8.08333 11.0833 9.25 12.25C10.4167 13.4167 11.8333 14 13.5 14Z" fill="#1C1B1F"/>
</svg>
