<svg width="19" height="14" viewBox="0 0 19 14" fill="none" xmlns="http://www.w3.org/2000/svg">
<path d="M12.6538 10.8463H16.3463V7.15375H15.1538V9.65375H12.6538V10.8463ZM9.5 9.69225C10.2435 9.69225 10.8781 9.42942 11.4038 8.90375C11.9294 8.37808 12.1923 7.7435 12.1923 7C12.1923 6.2565 11.9294 5.62192 11.4038 5.09625C10.8781 4.57058 10.2435 4.30775 9.5 4.30775C8.7565 4.30775 8.12192 4.57058 7.59625 5.09625C7.07058 5.62192 6.80775 6.2565 6.80775 7C6.80775 7.7435 7.07058 8.37808 7.59625 8.90375C8.12192 9.42942 8.7565 9.69225 9.5 9.69225ZM2.65375 6.84625H3.84625V4.34625H6.34625V3.15375H2.65375V6.84625ZM0 13.5V0.5H19V13.5H0ZM1.5 12H17.5V2H1.5V12Z" fill="#1C1B1F"/>
</svg>
