<svg width="20" height="20" viewBox="0 0 20 20" fill="none" xmlns="http://www.w3.org/2000/svg">
<path d="M4.00007 3.90368C3.49491 3.90368 3.06091 3.72226 2.69807 3.35943C2.33524 2.99676 2.15382 2.56284 2.15382 2.05768C2.15382 1.55251 2.33524 1.11851 2.69807 0.755675C3.06091 0.392841 3.49491 0.211426 4.00007 0.211426C4.50524 0.211426 4.93924 0.392841 5.30207 0.755675C5.66491 1.11851 5.84632 1.55251 5.84632 2.05768C5.84632 2.56284 5.66491 2.99676 5.30207 3.35943C4.93924 3.72226 4.50524 3.90368 4.00007 3.90368ZM2.42307 19.7499V12.9614H0.538574V7.01918C0.538574 6.52051 0.715157 6.09451 1.06832 5.74118C1.42149 5.38801 1.84749 5.21143 2.34632 5.21143H5.65382C6.15266 5.21143 6.57866 5.38801 6.93182 5.74118C7.28499 6.09451 7.46157 6.52051 7.46157 7.01918V9.25768C6.52057 9.82568 5.75007 10.6173 5.15007 11.6327C4.55007 12.648 4.25007 13.7704 4.25007 14.9999C4.25007 15.8601 4.39782 16.6678 4.69332 17.4229C4.98882 18.1781 5.38591 18.8243 5.88457 19.3614V19.7499H2.42307ZM11.0193 19.7692C9.70649 19.7692 8.58341 19.3025 7.65007 18.3692C6.71674 17.4358 6.25007 16.3128 6.25007 14.9999C6.25007 13.9986 6.53599 13.096 7.10782 12.2922C7.67966 11.4883 8.43216 10.9102 9.36532 10.5577V12.1942C8.87049 12.4993 8.47757 12.8945 8.18657 13.3797C7.89557 13.865 7.75007 14.4051 7.75007 14.9999C7.75007 15.9166 8.06574 16.6907 8.69707 17.3222C9.32857 17.9535 10.1027 18.2692 11.0193 18.2692C11.8783 18.2692 12.6267 17.9727 13.2646 17.3797C13.9024 16.7868 14.2405 16.0417 14.2788 15.1442H15.7788C15.7277 16.457 15.245 17.556 14.3308 18.4412C13.4167 19.3265 12.3128 19.7692 11.0193 19.7692ZM18.4923 17.3537L16.0848 13.7499H10.7501V6.24993H12.2501V12.2499H16.9153L19.7538 16.5327L18.4923 17.3537Z" fill="#1C1B1F"/>
</svg>
