<svg width="36" height="36" viewBox="0 0 36 36" fill="none" xmlns="http://www.w3.org/2000/svg">
<path d="M18 2.25C10.5439 2.25 4.5 8.29395 4.5 15.75C4.5 19.4767 6.00998 22.851 8.45213 25.2938C10.8949 27.738 16.65 31.275 16.9875 34.9875C17.0381 35.5442 17.4411 36 18 36C18.5589 36 18.9619 35.5442 19.0125 34.9875C19.35 31.275 25.105 27.738 27.5479 25.2938C29.99 22.851 31.5 19.4767 31.5 15.75C31.5 8.29395 25.4561 2.25 18 2.25Z" fill="#FF4433"/>
<path d="M18.0004 20.4759C20.6099 20.4759 22.7253 18.3604 22.7253 15.7509C22.7253 13.1413 20.6099 11.0259 18.0004 11.0259C15.3909 11.0259 13.2754 13.1413 13.2754 15.7509C13.2754 18.3604 15.3909 20.4759 18.0004 20.4759Z" fill="white"/>
</svg>
